<svg width="36" height="41" viewBox="0 0 36 41" fill="none" xmlns="http://www.w3.org/2000/svg">
<path d="M35.2832 30.9237C35.4472 30.6422 35.4741 30.3906 35.4741 30.3906V11.7477C35.4741 11.7477 35.4453 11.0926 34.8509 10.6746C34.787 10.6371 34.5418 10.4938 34.1551 10.2679C34.1056 10.0489 33.9661 9.66161 33.5644 9.37065C33.0457 9.06781 20.7274 1.89159 17.7347 0.143998C17.3436 -0.0587303 16.7586 -0.0330634 16.442 0.137754C13.55 1.8428 1.65593 8.81692 0.841884 9.25116C-0.0879146 9.74421 0.00344064 10.7103 0.00344064 10.7103C0.00344064 10.7103 0.0259728 28.7419 0.0259728 28.9922C0.0416154 29.504 0.334446 29.8425 0.503386 29.9977H0.496493L1.61714 31.1114C1.76293 31.3004 1.90622 31.3993 1.90872 31.4005L1.90935 31.4018V31.4011L17.8749 40.686H17.8755C17.8755 40.686 18.0463 40.7855 18.3341 40.7905C18.5237 40.8036 18.7508 40.7855 18.9836 40.6772C19.8139 40.1917 21.5684 39.1661 23.6182 37.9679C25.1668 37.0638 26.9257 36.0345 28.5876 35.0609C31.7968 33.1838 34.5868 31.5513 34.8571 31.388C34.8659 31.383 34.8809 31.3749 34.8809 31.3749C34.8809 31.3749 35.0229 31.2804 35.1712 31.0895C35.1869 31.0695 35.2025 31.0495 35.2163 31.0282C35.2401 30.9957 35.2607 30.9638 35.2832 30.9237Z" fill="#F7941E"/>
<path d="M16.5787 39.3833L0.621337 30.0965C0.621337 30.0965 0.046937 29.713 0.0250373 28.9934C0.0250373 28.7431 0.0025052 10.7109 0.0025052 10.7109C0.0025052 10.7109 -0.0894567 9.74483 0.840967 9.2524C1.65376 8.81753 13.5484 1.84343 16.4404 0.138385C16.7577 -0.0324329 17.3421 -0.0580954 17.7331 0.145259C20.7259 1.89223 33.0448 9.06844 33.5635 9.37128C34.1517 9.79802 34.1817 10.4394 34.1817 10.4394V29.0854C34.1817 29.0854 34.1216 29.6848 33.5891 30.0702C33.2644 30.2774 20.4305 37.7652 17.6906 39.3676C17.1224 39.6298 16.5787 39.3833 16.5787 39.3833Z" fill="#FFC20E"/>
<path d="M16.5791 39.3833L17.8743 40.6872C17.8743 40.6872 18.3699 40.9901 19.1207 40.5771C19.8691 40.1779 34.8804 31.3767 34.8804 31.3767C34.8804 31.3767 35.2527 31.1621 35.4203 30.614C34.9386 29.8807 34.1758 28.8908 34.1758 28.8908C34.1758 28.8908 34.2346 29.7205 33.4043 30.1779C32.375 30.7804 17.8818 39.3044 17.8818 39.3044C17.8818 39.3044 17.2436 39.7061 16.5791 39.3833Z" fill="#FFF32A"/>
<path d="M23.1747 17.9991C23.1747 18.3132 23.0251 18.5078 22.7079 18.5692H21.6348H20.0968V17.3396H21.6348H22.7079C23.0251 17.3396 23.1747 17.5336 23.1747 17.9053V17.9991ZM23.1747 22.4498C23.1747 22.7645 23.0251 22.946 22.7079 23.0066H21.6348H20.0968V21.7778H21.6348H22.7079C23.0251 21.881 23.1747 22.065 23.1747 22.3453V22.4498ZM27.4132 20.303C27.0772 20.1434 26.8213 20.017 26.7337 19.9889C27.7849 19.2587 28.3155 18.3508 28.3155 17.2464C28.3155 16.7727 28.1872 16.2628 27.9751 15.6646C27.6616 15.0658 27.3181 14.6266 26.9151 14.3143C26.1443 13.8682 25.4528 13.6574 24.8534 13.6574H21.6348H14.9598L12.8405 20.3555L10.6618 13.6574H5.1875L9.66755 26.5056H21.6348H25.3271C25.9253 26.5056 26.6361 26.2866 27.4776 25.8461C28.4093 25.0871 28.8798 24.1123 28.8798 22.9128C28.8798 21.881 28.3893 20.9981 27.4132 20.303Z" fill="#D2232A"/>
</svg>
